<svg xmlns="http://www.w3.org/2000/svg" id="prefix__Group_1" width="65.348" height="22.108" data-name="Group 1" viewBox="0 0 65.348 22.108">
    <defs>
        <style>
            .prefix__cls-1{fill:#fff}
        </style>
    </defs>
    <path id="prefix__Path_12" d="M12.974 0v7.931h-.109a5.216 5.216 0 0 0-.76-.815 5.5 5.5 0 0 0-1.086-.76 9.162 9.162 0 0 0-1.467-.6 6.684 6.684 0 0 0-1.9-.272 7.112 7.112 0 0 0-3.042.652 7.743 7.743 0 0 0-2.39 1.738 9.034 9.034 0 0 0-1.577 2.61 8.83 8.83 0 0 0-.543 3.2 9.334 9.334 0 0 0 .543 3.259 7.71 7.71 0 0 0 1.467 2.612 7.1 7.1 0 0 0 2.39 1.793A7.506 7.506 0 0 0 7.7 22a6.807 6.807 0 0 0 3.1-.706 5.608 5.608 0 0 0 2.281-2.064h.054v2.336h3.748V0zm-.163 15.536a4.866 4.866 0 0 1-.923 1.63 3.83 3.83 0 0 1-1.467 1.141 4.261 4.261 0 0 1-1.9.435 4.75 4.75 0 0 1-2.01-.435 5.011 5.011 0 0 1-1.412-1.2 4.6 4.6 0 0 1-.815-1.63 6.9 6.9 0 0 1-.272-1.847 6.83 6.83 0 0 1 .272-1.793 4.6 4.6 0 0 1 .815-1.63A3.652 3.652 0 0 1 6.51 9.072a4.75 4.75 0 0 1 2.01-.435 4.261 4.261 0 0 1 1.9.435 6.156 6.156 0 0 1 1.467 1.2 6.023 6.023 0 0 1 .923 1.63 5.289 5.289 0 0 1 .326 1.847 5.215 5.215 0 0 1-.325 1.787z" class="prefix__cls-1" data-name="Path 12" transform="translate(-.1)"/>
    <path id="prefix__Path_13" d="M45.91 24.169h-.11a4.587 4.587 0 0 1-1.9 1.738 6.54 6.54 0 0 1-2.988.652 8.079 8.079 0 0 1-1.956-.272 6.49 6.49 0 0 1-1.9-.815 4.237 4.237 0 0 1-1.412-1.521 4.179 4.179 0 0 1-.544-2.281 3.97 3.97 0 0 1 .978-2.825 5.826 5.826 0 0 1 2.553-1.575 15.635 15.635 0 0 1 3.477-.76q1.874-.163 3.748-.163v-.326a2.47 2.47 0 0 0-1.086-2.173 4.226 4.226 0 0 0-2.5-.706 5.3 5.3 0 0 0-2.39.543 6.087 6.087 0 0 0-1.9 1.249l-2.01-2.39a8.121 8.121 0 0 1 3.1-1.847 9.852 9.852 0 0 1 3.531-.6 8.6 8.6 0 0 1 3.422.6 5.332 5.332 0 0 1 2.118 1.521 5.626 5.626 0 0 1 1.086 2.119 8.655 8.655 0 0 1 .326 2.336v9.506H45.91zm-.11-5.106h-.869c-.652 0-1.3.054-2.01.054a6.555 6.555 0 0 0-1.9.38 3.754 3.754 0 0 0-1.467.76 1.8 1.8 0 0 0-.6 1.412 1.554 1.554 0 0 0 .217.923 1.727 1.727 0 0 0 .652.6 2.4 2.4 0 0 0 .869.326 5.986 5.986 0 0 0 .978.109 3.988 3.988 0 0 0 3.042-1.086 3.951 3.951 0 0 0 1.032-2.933v-.543z" class="prefix__cls-1" data-name="Path 13" transform="translate(-16.088 -4.614)"/>
    <path id="prefix__Path_14" d="M75.721 14.854a4.451 4.451 0 0 0-1.412-1.2 4.078 4.078 0 0 0-2.01-.489 3.71 3.71 0 0 0-1.738.38 1.317 1.317 0 0 0-.76 1.3 1.333 1.333 0 0 0 .869 1.3 14.957 14.957 0 0 0 2.553.76 11.266 11.266 0 0 1 1.793.543 5.87 5.87 0 0 1 1.63.869 4.786 4.786 0 0 1 1.2 1.358 3.72 3.72 0 0 1 .435 1.956 4.926 4.926 0 0 1-.543 2.444 5.114 5.114 0 0 1-1.412 1.63 5.39 5.39 0 0 1-2.064.869 12.479 12.479 0 0 1-2.444.272 9.91 9.91 0 0 1-3.531-.652 7.626 7.626 0 0 1-2.879-1.9l2.553-2.39a5.428 5.428 0 0 0 1.684 1.412 4.68 4.68 0 0 0 3.2.435 2.561 2.561 0 0 0 .815-.326 1.937 1.937 0 0 0 .6-.543 1.481 1.481 0 0 0 .217-.869 1.427 1.427 0 0 0-.869-1.412 20.324 20.324 0 0 0-2.716-.869 10.41 10.41 0 0 1-1.738-.489 6.377 6.377 0 0 1-1.467-.815 3.633 3.633 0 0 1-1.412-3.1 4.107 4.107 0 0 1 .543-2.227 4.92 4.92 0 0 1 1.412-1.575 6.1 6.1 0 0 1 2.01-.869 8.2 8.2 0 0 1 2.281-.272 9.917 9.917 0 0 1 3.314.6 5.469 5.469 0 0 1 2.553 1.793z" class="prefix__cls-1" data-name="Path 14" transform="translate(-29.929 -4.751)"/>
    <path id="prefix__Path_15" d="M106.891 7.442A5.056 5.056 0 0 0 105.1 6.03a5.594 5.594 0 0 0-2.607-.543 5.147 5.147 0 0 0-1.63.217 10.26 10.26 0 0 0-1.358.6 7.942 7.942 0 0 0-1.032.869 3.409 3.409 0 0 0-.652.978h-.109V0H93.8v21.565h3.911v-8.528a4.686 4.686 0 0 1 .217-1.521 4.634 4.634 0 0 1 .706-1.358 4.94 4.94 0 0 1 1.141-.978 3.607 3.607 0 0 1 1.63-.38 2.528 2.528 0 0 1 1.521.38 2.977 2.977 0 0 1 .869.978 4.98 4.98 0 0 1 .435 1.358 13.375 13.375 0 0 1 .109 1.412v8.583h3.911v-9.778a8.366 8.366 0 0 0-.326-2.336 6.125 6.125 0 0 0-1.033-1.955z" class="prefix__cls-1" data-name="Path 15" transform="translate(-42.902)"/>
</svg>
